#!OML:ASF H:\Terrain\Patient Classification 1\Animal2\Wednesday\Animal2.ASF
:FULLY-SPECIFIED
:DEGREES
256
root 13.17 17.95 -22.3849 8.26313 -19.9206 -0.382135
lowerback 1.47288 -3.28034 1.61469
upperback -5.77001 -4.33362 0.287816
thorax -6.92935 -2.23608 -0.271545
lowerneck 5.46049 7.47886 14.4659
upperneck -5.57273 10.1811 -20.0432
head -0.660278 5.41576 -8.64658
rclavicle -8.14675e-014 -4.24902e-015
rhumerus -11.884 -21.1987 -27.7911
rradius 37.7607
rwrist 27.644
rhand -12.6235 13.8495
rfingers 7.12502
rthumb 13.4561 -15.6959
lclavicle -8.14675e-014 -4.24902e-015
lhumerus -15.0502 0.613689 24.5999
lradius 34.9983
lwrist 7.89089
lhand -29.2546 25.3474
lfingers 7.12502
lthumb -2.59761 55.3113
rfemur -12.881 -6.71682 20.9995
rtibia 24.8597
rfoot -18.866 5.60587
rtoes 25.4296
lfemur -11.6363 -2.41568 -20.6465
ltibia 20.9319
lfoot -15.8576 7.45812
ltoes -29.5869
257
root 13.1633 17.9523 -22.3785 8.29834 -20.0345 -0.590079
lowerback 1.02292 -3.3023 1.9204
upperback -5.40354 -4.36495 0.1279
thorax -6.3172 -2.26924 -0.648151
lowerneck 5.16405 7.57392 14.465
upperneck -5.82326 10.2538 -19.8447
head -0.679574 5.4358 -8.5702
rclavicle -1.50477e-013 -1.66979e-014
rhumerus -12.0156 -21.8975 -29.022
rradius 37.8707
rwrist 27.5255
rhand -12.2917 14.1504
rfingers 7.12502
rthumb 13.7759 -15.3736
lclavicle -1.50477e-013 -1.66979e-014
lhumerus -15.1702 0.0556779 24.1956
lradius 35.3517
lwrist 8.62893
lhand -29.4988 26.1714
lfingers 7.12502
lthumb -2.8334 56.1323
rfemur -12.7812 -6.90273 21.1899
rtibia 24.8096
rfoot -18.6882 5.99591
rtoes 24.7899
lfemur -11.5686 -2.61484 -20.4225
ltibia 21.0389
lfoot -15.9995 7.7322
ltoes -29.6476
258
root 13.1544 17.9508 -22.3704 8.41327 -20.2748 -0.918515
lowerback 0.953196 -3.28104 2.1307
upperback -5.44176 -4.32673 0.179016
thorax -6.32932 -2.26027 -0.716863
lowerneck 5.44666 7.59412 14.3657
upperneck -6.01364 10.2834 -19.7717
head -0.786412 5.46612 -8.54985
rclavicle -6.57045e-014 -1.49089e-014
rhumerus -12.5014 -21.7814 -29.9613
rradius 38.0034
rwrist 27.345
rhand -12.0536 14.3253
rfingers 7.12502
rthumb 14.0053 -15.1829
lclavicle -6.57045e-014 -1.49089e-014
lhumerus -15.8577 -0.539524 24.3522
lradius 35.696
lwrist 9.03313
lhand -29.5839 27.2493
lfingers 7.12502
lthumb -2.91563 57.2092
rfemur -12.718 -6.73575 21.5043
rtibia 24.7595
rfoot -18.4115 6.23536
rtoes 24.7835
lfemur -11.527 -2.74144 -20.0827
ltibia 21.1371
lfoot -16.0756 7.88834
ltoes -28.2229
259
root 13.1429 17.9497 -22.3613 8.5463 -20.6268 -1.1495
lowerback 1.4005 -3.19447 1.96775
upperback -5.91301 -4.19462 0.439105
thorax -7.05311 -2.18429 -0.318791
lowerneck 5.70152 7.51408 14.4461
upperneck -5.59588 10.2458 -20.1613
head -0.690146 5.4627 -8.69275
rclavicle 1.99095e-015 -2.03754e-015
rhumerus -13.5282 -21.0177 -30.3583
rradius 38.3002
rwrist 27.1795
rhand -11.6395 15.108
rfingers 7.12502
rthumb 14.4044 -14.3721
lclavicle 1.99095e-015 -2.03754e-015
lhumerus -16.9834 -1.12722 25.0084
lradius 35.856
lwrist 8.99975
lhand -29.4302 27.2375
lfingers 7.12502
lthumb -2.76715 57.1993
rfemur -12.704 -6.3949 21.7055
rtibia 24.7025
rfoot -18.2211 6.40635
rtoes 25.0836
lfemur -11.5309 -2.69732 -19.8709
ltibia 21.2509
lfoot -16.0686 8.31572
ltoes -28.3614
260
root 13.1315 17.9457 -22.3513 8.37087 -21.003 -1.11555
lowerback 1.42254 -3.13154 1.78258
upperback -5.84453 -4.11946 0.428071
thorax -6.97691 -2.13629 -0.235509
lowerneck 5.65987 7.49814 14.5598
upperneck -5.60815 10.2185 -20.4195
head -0.668972 5.45212 -8.79572
rclavicle 4.6e-015 1.2275e-014
rhumerus -14.3146 -20.787 -31.3261
rradius 38.5895
rwrist 26.7475
rhand -11.1681 15.3543
rfingers 7.12502
rthumb 14.8585 -14.0929
lclavicle 4.6e-015 1.2275e-014
lhumerus -17.6668 -1.31856 25.445
lradius 35.8124
lwrist 9.21899
lhand -29.2437 27.1107
lfingers 7.12502
lthumb -2.58704 57.0747
rfemur -12.4731 -6.43194 21.5999
rtibia 24.6411
rfoot -18.0898 6.85964
rtoes 25.2555
lfemur -11.2759 -2.6327 -19.9595
ltibia 21.3827
lfoot -16.1699 8.88019
ltoes -29.7088
261
root 13.125 17.9373 -22.3455 8.02606 -21.3455 -1.07938
lowerback 1.70604 -3.05464 1.58335
upperback -5.76339 -4.01892 0.449309
thorax -7.03524 -2.07313 -0.0973865
lowerneck 5.63202 7.47323 14.4094
upperneck -5.67529 10.1581 -20.4327
head -0.701555 5.4244 -8.77799
rclavicle -3.36536e-014 -1.2921e-015
rhumerus -15.0767 -20.5896 -32.2676
rradius 38.7281
rwrist 26.5648
rhand -10.6892 15.048
rfingers 7.12502
rthumb 15.3199 -14.3646
lclavicle -3.36536e-014 -1.2921e-015
lhumerus -18.37 -1.31412 26.2396
lradius 35.6652
lwrist 9.24457
lhand -28.7841 27.2552
lfingers 7.12502
lthumb -2.14317 57.2242
rfemur -12.0979 -6.57226 21.4853
rtibia 24.6199
rfoot -17.9877 7.39046
rtoes 25.0193
lfemur -10.8533 -2.53175 -20.0484
ltibia 21.457
lfoot -16.2412 9.25543
ltoes -30.3873
262
root 13.1206 17.9288 -22.3471 7.83225 -21.6133 -1.23006
lowerback 1.90587 -2.98058 1.59987
upperback -5.66055 -3.9094 0.526973
thorax -7.03421 -2.01584 -0.0270052
lowerneck 5.439 7.44298 14.1231
upperneck -5.68329 10.0712 -20.3564
head -0.706841 5.37434 -8.69845
rclavicle 1.41712e-014 -1.3741e-014
rhumerus -15.8386 -20.7996 -33.153
rradius 38.7519
rwrist 27.0749
rhand -10.1325 15.3496
rfingers 7.12502
rthumb 15.8561 -14.0211
lclavicle 1.41712e-014 -1.3741e-014
lhumerus -19.1145 -0.751667 27.3235
lradius 35.5959
lwrist 9.13698
lhand -28.4655 27.642
lfingers 7.12502
lthumb -1.83548 57.6139
rfemur -11.8409 -6.16611 21.6038
rtibia 24.6469
rfoot -18.0143 7.44898
rtoes 24.8173
lfemur -10.5548 -2.37257 -19.9097
ltibia 21.4508
lfoot -16.1077 9.43808
ltoes -30.6606
263
root 13.1177 17.9242 -22.3449 7.53104 -21.7216 -1.11864
lowerback 2.07081 -2.91329 1.46401
upperback -5.60102 -3.82307 0.523796
thorax -7.05502 -1.96466 0.0449245
lowerneck 5.44255 7.34302 13.8288
upperneck -5.65115 9.91396 -20.2869
head -0.746797 5.29876 -8.632
rclavicle -2.92633e-014 -3.97569e-015
rhumerus -16.8681 -20.662 -33.8481
rradius 38.8524
rwrist 27.0482
rhand -9.7987 15.5956
rfingers 7.12502
rthumb 16.1775 -13.7493
lclavicle -2.92633e-014 -3.97569e-015
lhumerus -19.865 -0.114671 28.6347
lradius 35.5035
lwrist 9.01219
lhand -28.4728 27.4172
lfingers 7.12502
lthumb -1.84258 57.389
rfemur -11.5609 -5.92339 21.4623
rtibia 24.6657
rfoot -18.0777 7.37755
rtoes 24.7503
lfemur -10.2473 -2.28706 -20.0305
ltibia 21.4332
lfoot -16.1106 9.40011
ltoes -30.275
264
root 13.1176 17.9189 -22.3354 7.15115 -21.7657 -0.879581
lowerback 2.26964 -2.84016 1.2769
upperback -5.59902 -3.7338 0.490748
thorax -7.15616 -1.9104 0.117844
lowerneck 5.66887 7.23706 13.5912
upperneck -5.60789 9.77495 -20.2885
head -0.810888 5.24398 -8.60869
rclavicle 1.03576e-014 6.73383e-015
rhumerus -17.942 -20.2057 -34.3976
rradius 38.8088
rwrist 26.6037
rhand -9.42626 15.5647
rfingers 7.12502
rthumb 16.5361 -13.7507
lclavicle 1.03576e-014 6.73383e-015
lhumerus -20.6994 -0.0939006 30.047
lradius 35.3615
lwrist 9.19793
lhand -28.4537 27.2949
lfingers 7.12502
lthumb -1.82411 57.2668
rfemur -11.1923 -6.05585 21.1737
rtibia 24.6489
rfoot -18.1775 7.42185
rtoes 24.5401
lfemur -9.88836 -2.18892 -20.2964
ltibia 21.4355
lfoot -16.3561 9.2119
ltoes -29.8196
265
root 13.1158 17.9127 -22.3284 6.90812 -21.884 -0.943717
lowerback 2.51965 -2.80378 1.35985
upperback -5.58884 -3.67265 0.535651
thorax -7.29221 -1.88236 0.126954
lowerneck 5.7471 7.28911 13.4722
upperneck -5.4799 9.8584 -20.3378
head -0.777096 5.2902 -8.60183
rclavicle 3.76744e-014 -5.51627e-015
rhumerus -18.7314 -19.8706 -35.0864
rradius 38.6142
rwrist 26.3986
rhand -8.67377 15.5506
rfingers 7.12502
rthumb 17.2604 -13.7028
lclavicle 3.76744e-014 -5.51627e-015
lhumerus -21.7955 -0.307735 31.3159
lradius 35.5118
lwrist 9.56282
lhand -27.8515 27.5459
lfingers 7.12502
lthumb -1.2425 57.522
rfemur -10.8868 -6.00203 21.2117
rtibia 24.6782
rfoot -18.3503 7.43563
rtoes 25.0561
lfemur -9.50629 -1.92664 -20.2449
ltibia 21.3625
lfoot -16.4809 9.05883
ltoes -30.1451
